<svg width="390" height="184" viewBox="0 0 390 184" fill="none" xmlns="http://www.w3.org/2000/svg">
<path d="M0 162.148H13.873C13.873 167.498 16.6476 169.876 22.7914 169.876C27.7461 169.876 30.917 167.697 30.917 164.13C30.917 154.222 1.78367 160.959 1.78367 137.776C1.78367 125.886 11.2966 120.338 21.6023 120.338C34.088 120.338 42.2136 127.472 42.0155 137.974H28.3406C28.1424 134.605 25.7642 132.822 21.8005 132.822C17.8368 132.822 15.6567 134.803 15.6567 137.974C15.6567 148.079 44.5919 142.729 44.5919 164.13C44.5919 175.425 36.0699 182.558 23.1878 182.558C8.12563 182.36 0 174.037 0 162.148Z" fill="white"/>
<path d="M52.3538 167.214V140.463H64.6413V163.052C64.6413 167.61 66.6232 170.78 71.5778 170.78C76.5325 170.78 78.5143 167.412 78.5143 163.052V140.463H90.8019V167.015C90.8019 173.356 87.0363 182.669 71.776 182.669C56.1193 182.868 52.3538 173.356 52.3538 167.214Z" fill="white"/>
<path d="M110.191 140.995L118.119 165.962L126.046 140.995H139.127L124.461 182.607H111.975L97.1111 141.193H110.191V140.995Z" fill="white"/>
<path d="M145.073 182.409V140.995H157.36V145.949C159.738 142.581 163.306 140.203 168.855 140.203C181.737 140.203 184.512 149.714 184.512 155.857V182.409H172.224V160.613C172.224 156.253 170.44 152.687 166.278 152.687C160.135 152.687 157.558 159.622 157.558 164.179V182.409H145.073Z" fill="white"/>
<path d="M200.167 119.201C204.131 119.201 207.302 122.372 207.302 126.335C207.302 130.298 203.933 133.468 200.167 133.468C196.402 133.468 193.033 130.1 193.033 126.335C193.033 122.57 196.402 119.201 200.167 119.201ZM194.024 140.998H206.311V182.412H194.024V140.998Z" fill="white"/>
<path d="M212.853 182.407L233.266 121.971H248.329L268.742 182.407H254.671L251.896 173.689H229.699L226.924 182.407H212.853ZM233.663 162.196H248.329L240.996 139.012L233.663 162.196Z" fill="white"/>
<path d="M273.697 168.729H286.579C286.579 171.702 288.362 173.485 291.731 173.485C294.902 173.485 296.488 172.296 296.488 170.117C296.488 163.776 274.886 168.135 274.886 152.085C274.886 144.357 281.426 139.997 291.533 139.997C301.839 139.997 307.586 146.338 307.586 152.877H295.101C294.902 150.896 293.912 149.31 291.137 149.31C288.759 149.31 287.371 150.301 287.371 152.085C287.371 159.614 308.974 155.057 308.974 170.513C308.974 178.637 300.848 182.996 291.533 182.996C279.642 183.393 273.498 177.052 273.697 168.729Z" fill="white"/>
<path d="M316.902 182.403V140.989H329.189V146.141C331.369 143.169 334.54 140.989 339.495 140.989H342.666V152.68H339.098C330.973 152.68 328.991 159.021 328.991 164.569V182.403H316.902Z" fill="white"/>
<path d="M367.239 140.203C371.797 140.203 375.167 141.986 377.545 144.959V141.194H389.832V182.608H377.545V178.843C375.167 181.815 371.797 183.598 367.239 183.598C354.952 183.598 346.826 174.087 346.826 162C346.826 149.714 355.15 140.203 367.239 140.203ZM359.708 161.802C359.708 166.557 363.474 171.115 368.825 171.115C373.581 171.115 376.356 167.944 377.743 164.774V159.027C376.554 155.659 373.581 152.488 368.825 152.488C363.275 152.488 359.708 156.848 359.708 161.802Z" fill="white"/>
<path d="M225.837 63.2107C225.639 63.2107 225.441 63.2107 225.243 63.2107C223.856 63.2107 222.468 64.2015 221.874 64.9941C219.694 65.7867 218.505 66.9756 217.91 69.5516C217.315 71.7313 215.334 76.2888 213.946 78.4685C214.144 77.4777 213.748 76.4869 213.154 75.6943C212.559 74.9017 211.568 74.5054 210.577 74.5054C209.586 74.5054 208.001 74.9017 206.415 76.8832C205.821 77.6759 205.028 78.6666 204.037 79.4592C201.461 82.2334 198.686 85.2057 197.299 88.1779C195.713 91.1502 195.119 93.7262 194.524 96.3022C193.929 93.5281 193.137 91.1502 191.749 88.1779C190.362 85.4038 187.588 82.2334 185.011 79.4592C184.218 78.4685 183.227 77.6759 182.633 76.8832C180.849 74.9017 179.462 74.5054 178.471 74.5054C177.876 74.5054 177.48 74.7036 177.084 74.7036C176.687 74.9017 176.291 75.298 175.895 75.4962C175.3 76.2888 175.102 77.2796 175.102 78.2703C173.715 76.0906 171.733 71.5331 171.138 69.3534C170.544 66.7775 169.354 65.3904 167.174 64.7959C166.382 64.0033 165.192 63.0126 163.805 63.0126C163.607 63.0126 163.409 63.0126 163.012 63.2107C163.012 62.8144 163.211 62.4181 163.211 62.2199C163.409 60.4366 163.805 58.6532 164.202 56.8698C165.391 49.7363 170.94 40.8195 177.678 32.1007C184.417 23.5802 192.146 15.4559 198.091 9.31318C204.037 3.7649 208.199 0 208.199 0C207.604 8.71872 207.803 15.8522 208.595 21.7968C208.992 24.5709 209.388 27.1469 209.983 29.3266C212.163 37.4509 215.532 42.6028 218.703 46.9622C217.712 47.1603 216.325 46.5659 214.937 45.5751C208.001 41.2158 203.046 46.5659 199.875 46.1696C199.082 45.9714 198.29 45.7733 197.695 45.1788C197.497 44.9807 197.497 44.9807 197.497 44.9807C197.1 44.3862 196.902 43.7917 196.902 43.1973C196.902 41.8102 197.695 40.8195 198.884 40.225C199.082 40.0268 199.479 40.0268 199.875 40.0268C200.47 40.0268 200.866 40.225 201.262 40.4232C201.857 40.8195 203.442 42.0084 204.433 42.0084C206.415 42.0084 207.803 40.4232 207.803 38.6398C207.803 37.8472 207.604 37.0546 207.01 36.4601C206.812 36.0638 206.415 35.8656 206.019 35.6675C206.019 35.6675 206.019 35.6675 205.821 35.6675C205.424 35.4693 204.83 35.2712 204.235 35.2712C203.641 35.2712 203.046 35.2712 202.451 35.2712H202.253H202.055H201.857H201.659C199.479 35.6675 198.091 36.4601 194.92 36.4601C192.542 36.4601 190.362 35.8656 188.777 35.4693C188.182 35.2712 187.786 35.2712 187.588 35.2712C186.993 35.073 186.2 35.073 185.407 35.073C184.813 35.073 184.218 35.2712 183.822 35.4693C183.822 35.4693 183.822 35.4693 183.624 35.4693C183.227 35.6675 182.831 35.8656 182.633 36.2619C182.237 36.8564 181.84 37.4509 181.84 38.4416C181.84 40.225 183.426 41.8102 185.209 41.8102C186.2 41.8102 187.588 40.6213 188.38 40.225C188.777 40.0268 189.173 39.8287 189.768 39.8287C190.164 39.8287 190.56 39.8287 190.759 40.0268C191.948 40.4232 192.74 41.6121 192.74 42.9991C192.74 43.7918 192.542 44.3862 192.146 44.7825C191.353 45.7733 189.371 46.5659 187.191 45.377C182.038 42.2065 176.885 40.6213 175.696 45.377C175.102 47.7548 176.489 49.1419 176.093 51.3215C175.696 54.492 171.138 59.8421 172.327 65.1922C174.111 73.911 185.804 73.911 187.389 65.1922C188.777 57.068 178.867 51.916 180.651 49.34C181.444 48.1511 183.426 48.5474 185.804 50.9252C188.182 53.5012 191.551 55.2846 195.317 55.0864C200.866 54.8883 202.848 50.7271 207.208 49.9345C211.37 49.1419 212.757 50.7271 216.721 52.7086C218.505 53.5012 221.081 53.3031 222.072 52.1142C222.865 53.5012 223.459 54.6901 223.856 55.6809C225.045 58.6532 225.441 60.4366 225.639 62.0218C225.837 62.2199 225.837 62.6163 225.837 63.2107Z" fill="white"/>
<path d="M226.434 68.1609C225.641 74.5018 221.281 86.1928 215.335 91.3447C209.588 96.4967 202.849 97.2893 195.913 99.0727C196.706 95.3078 197.3 92.5337 199.084 88.9669C200.867 85.4002 205.624 80.8426 208.002 78.0685C210.38 75.0962 212.56 76.2851 212.164 78.4648C211.768 80.6445 207.209 83.8149 208.993 85.0039C210.777 85.9946 213.551 82.2297 215.137 80.2482C216.722 78.2667 219.299 72.5202 219.893 69.9442C220.488 67.7646 221.281 67.1701 222.866 66.5756C223.064 67.1701 223.064 67.7646 223.064 68.1609C223.064 68.9535 222.866 69.3498 222.668 70.3406C222.47 71.7276 221.875 73.511 221.479 74.6999C220.884 76.2851 220.488 77.4741 219.695 79.0593C218.902 80.6445 218.506 81.8334 217.912 83.2205C218.902 82.0316 220.686 78.4648 221.281 77.0777C222.073 75.2944 222.866 72.5202 223.064 70.935C223.263 69.3498 223.263 66.7738 223.064 66.3775C223.659 65.783 227.028 62.8108 226.434 68.1609Z" fill="white"/>
<path d="M162.617 68.1609C163.41 74.5018 167.77 86.1928 173.715 91.3447C179.463 96.4967 186.201 97.2893 193.138 99.0727C192.345 95.3078 191.75 92.5337 189.967 88.9669C188.183 85.4002 183.625 80.8426 181.048 78.0685C178.67 75.0962 176.49 76.2851 176.886 78.4648C177.283 80.6445 181.841 83.8149 180.057 85.0039C178.274 85.9946 175.499 82.2297 173.914 80.2482C172.328 78.2667 169.752 72.5202 169.157 69.9442C168.563 67.7646 167.77 67.1701 166.184 66.5756C165.986 67.1701 165.986 67.7646 165.986 68.1609C165.986 68.9535 166.184 69.3498 166.382 70.3406C166.581 71.7276 167.175 73.511 167.572 74.6999C168.166 76.2851 168.563 77.4741 169.355 79.0593C169.95 80.4463 170.544 81.8334 171.139 83.2205C170.148 82.0316 168.364 78.4648 167.77 77.0777C166.977 75.2944 166.184 72.5202 165.986 70.935C165.788 69.3498 165.788 66.7738 165.986 66.3775C165.392 65.783 162.022 62.8108 162.617 68.1609Z" fill="white"/>
<path d="M178.866 55.8756C178.866 55.8756 184.018 60.2349 183.424 63.6035C183.028 66.5758 179.263 68.161 177.083 65.7832C174.111 62.8109 179.263 60.2349 178.866 55.8756Z" fill="white"/>
</svg>
